<svg width="21" height="16" viewBox="0 0 21 16" fill="none" xmlns="http://www.w3.org/2000/svg">
<path fill-rule="evenodd" clip-rule="evenodd" d="M19.7251 4.06887C20.0977 3.669 20.3006 3.14012 20.2909 2.59365C20.2813 2.04718 20.0599 1.52578 19.6734 1.13931C19.287 0.752831 18.7656 0.531455 18.2191 0.521813C17.6726 0.512171 17.1437 0.715018 16.7439 1.08762L7.68762 10.1439L4.25637 6.71262C3.8565 6.34002 3.32762 6.13717 2.78115 6.14681C2.23468 6.15646 1.71328 6.37783 1.32681 6.76431C0.940333 7.15078 0.718955 7.67218 0.709313 8.21865C0.699671 8.76512 0.902518 9.294 1.27512 9.69387L6.19699 14.6157C6.5925 15.0108 7.12863 15.2326 7.68762 15.2326C8.2466 15.2326 8.78273 15.0108 9.17824 14.6157L19.7251 4.06887Z" fill="#BD7048"/>
</svg>
